<?xml version="1.0" encoding="utf-8"?>
<!-- Generator: Adobe Illustrator 27.7.0, SVG Export Plug-In . SVG Version: 6.00 Build 0)  -->
<svg version="1.1" id="svg" xmlns="http://www.w3.org/2000/svg" xmlns:xlink="http://www.w3.org/1999/xlink" x="0px" y="0px"
	 viewBox="0 0 400 200" style="enable-background:new 0 0 400 200;" xml:space="preserve">
<g>
	<path d="M195.3,74.9h12.2l50.4-48.6V25h-60.5v1.3C203.5,40.1,203.1,58.7,195.3,74.9z"/>
	<polygon points="133.6,74.9 176.6,74.9 176.6,38.5 187.8,26.3 187.8,24.9 122.4,24.9 122.4,26.3 133.6,38.5 	"/>
	<polygon points="188,124 206.8,160.2 196.1,171.6 196.1,173 257.5,173 257.5,171.4 234.3,124 	"/>
	<polygon points="176.6,124 133.6,124 133.6,159.4 122.4,171.6 122.4,173 187.8,173 187.8,171.6 176.6,159.4 	"/>
</g>
<g>
	<g transform="translate(8.458449, 77.513986)">
		<g>
			<path d="M13,26.3c5.6,0,9.4-2.9,9.4-7.2s-3.8-7.3-9.4-7.3s-9.4,3-9.4,7.3C3.5,23.4,7.4,26.3,13,26.3z M13,24.3
				c-4,0-6.8-2.1-6.8-5.2S9,13.9,13,13.9s6.8,2.1,6.8,5.2C19.7,22.1,16.9,24.3,13,24.3z"/>
		</g>
	</g>
</g>
<g>
	<g transform="translate(35.130256, 77.513986)">
		<g>
			<path d="M12.7,25.8h2.6v-11l0,0l9.7,11h3.3V12.3h-2.6v10.9l0,0L16,12.3h-3.3V25.8z"/>
		</g>
	</g>
</g>
<g>
	<g transform="translate(59.712408, 77.513986)">
		<g>
			<path d="M20.9,25.8h13.6v-1.9H23.4v-4.1h10.1V18H23.4v-3.7h10.9v-1.9H20.9V25.8z"/>
		</g>
	</g>
</g>
<g>
	<g transform="translate(82.405287, 77.513986)">
	</g>
</g>
<g>
	<g transform="translate(97.999074, 77.513986)">
		<g>
			<path d="M33.6,25.8h2.6V12.3h-2.6V25.8z"/>
		</g>
	</g>
</g>
<g>
	<g transform="translate(112.86291, 77.513986)">
		<g>
			<path d="M38.6,25.8h2.6v-11l0,0l9.7,11h3.3V12.3h-2.6v10.9l0,0l-9.7-10.9h-3.3V25.8z"/>
		</g>
	</g>
</g>
<g>
	<g transform="translate(137.445068, 77.513986)">
	</g>
</g>
<g>
	<g transform="translate(153.038863, 77.513986)">
		<g>
			<path d="M52,25.8h13.6v-1.9H54.5v-4.1h10.1V18H54.5v-3.7h10.9v-1.9H52V25.8z"/>
		</g>
	</g>
</g>
<g>
	<g transform="translate(175.731744, 77.513986)">
		<g>
			<path d="M59.5,25.8h2.6V15.1l0,0L68,25.8h2.7L76.5,15l0,0v10.8h2.6V12.3h-3.7l-6.1,11.1l0,0l-6.1-11.1h-3.7
				C59.5,12.3,59.5,25.8,59.5,25.8z"/>
		</g>
	</g>
</g>
<g>
	<g transform="translate(203.290949, 77.513986)">
		<g>
			<path d="M68.7,25.8h2.6V12.3h-2.6V25.8z"/>
		</g>
	</g>
</g>
<g>
	<g transform="translate(218.154791, 77.513986)">
		<g>
			<path d="M73.7,25.8H85v-2.1h-8.7V12.3h-2.7L73.7,25.8L73.7,25.8z"/>
		</g>
	</g>
</g>
<g>
	<g transform="translate(238.929777, 77.513986)">
		<g>
			<path d="M80.6,25.8h2.6V12.3h-2.6V25.8z"/>
		</g>
	</g>
</g>
<g>
	<g transform="translate(253.793605, 77.513986)">
		<g>
			<path d="M85.6,25.8h13.6v-1.9H88.1v-4.1h10.1V18H88.1v-3.7H99v-1.9H85.6V25.8z"/>
		</g>
	</g>
</g>
<g>
	<g transform="translate(276.486486, 77.513986)">
		<g>
			<path d="M93.1,25.8h2.6v-11l0,0l9.7,11h3.3V12.3h-2.6v10.9l0,0l-9.7-10.9h-3.3V25.8z"/>
		</g>
	</g>
</g>
<g>
	<g transform="translate(192.278151, 39.012858)">
		<g>
			<path d="M92.9-16.3c0-5.2-4.2-9.4-9.4-9.4H65.9V-14h9.4v-2.3h8.3v5.9h-8.3c-5.2,0-9.4,4.2-9.4,9.4v14.1h27V3.6H75.2v-4.7h8.3
				c5.2,0,9.4-4.2,9.4-9.4h-0.1c0.1-0.4,0.1-0.8,0.1-1.2V-16.3z"/>
		</g>
	</g>
</g>
</svg>
