<svg width="350" height="350" version="1.1" xmlns="http://www.w3.org/2000/svg"
  xmlns:xlink="http://www.w3.org/1999/xlink">
  <svg>
    <rect x="0" y="0" width="350" height="350" style="fill:#fff;shape-rendering:crispEdges;"></rect>
    <path x="0" y="0" style="fill:#000;shape-rendering:crispEdges;"
      d="M0,0 V10.61 H10.61 V0 H0 Z M10.61,0 V10.61 H21.21 V0 H10.61 Z M21.21,0 V10.61 H31.82 V0 H21.21 Z M31.82,0 V10.61 H42.42 V0 H31.82 Z M42.42,0 V10.61 H53.03 V0 H42.42 Z M53.03,0 V10.61 H63.64 V0 H53.03 Z M63.64,0 V10.61 H74.24 V0 H63.64 Z M95.45,0 V10.61 H106.06 V0 H95.45 Z M116.67,0 V10.61 H127.27 V0 H116.67 Z M127.27,0 V10.61 H137.88 V0 H127.27 Z M180.30,0 V10.61 H190.91 V0 H180.30 Z M190.91,0 V10.61 H201.52 V0 H190.91 Z M233.33,0 V10.61 H243.94 V0 H233.33 Z M254.55,0 V10.61 H265.15 V0 H254.55 Z M275.76,0 V10.61 H286.36 V0 H275.76 Z M286.36,0 V10.61 H296.97 V0 H286.36 Z M296.97,0 V10.61 H307.58 V0 H296.97 Z M307.58,0 V10.61 H318.18 V0 H307.58 Z M318.18,0 V10.61 H328.79 V0 H318.18 Z M328.79,0 V10.61 H339.39 V0 H328.79 Z M339.39,0 V10.61 H350 V0 H339.39 Z M0,10.61 V21.21 H10.61 V10.61 H0 Z M63.64,10.61 V21.21 H74.24 V10.61 H63.64 Z M84.85,10.61 V21.21 H95.45 V10.61 H84.85 Z M106.06,10.61 V21.21 H116.67 V10.61 H106.06 Z M127.27,10.61 V21.21 H137.88 V10.61 H127.27 Z M137.88,10.61 V21.21 H148.48 V10.61 H137.88 Z M148.48,10.61 V21.21 H159.09 V10.61 H148.48 Z M169.70,10.61 V21.21 H180.30 V10.61 H169.70 Z M233.33,10.61 V21.21 H243.94 V10.61 H233.33 Z M254.55,10.61 V21.21 H265.15 V10.61 H254.55 Z M275.76,10.61 V21.21 H286.36 V10.61 H275.76 Z M339.39,10.61 V21.21 H350 V10.61 H339.39 Z M0,21.21 V31.82 H10.61 V21.21 H0 Z M21.21,21.21 V31.82 H31.82 V21.21 H21.21 Z M31.82,21.21 V31.82 H42.42 V21.21 H31.82 Z M42.42,21.21 V31.82 H53.03 V21.21 H42.42 Z M63.64,21.21 V31.82 H74.24 V21.21 H63.64 Z M84.85,21.21 V31.82 H95.45 V21.21 H84.85 Z M106.06,21.21 V31.82 H116.67 V21.21 H106.06 Z M116.67,21.21 V31.82 H127.27 V21.21 H116.67 Z M169.70,21.21 V31.82 H180.30 V21.21 H169.70 Z M180.30,21.21 V31.82 H190.91 V21.21 H180.30 Z M222.73,21.21 V31.82 H233.33 V21.21 H222.73 Z M243.94,21.21 V31.82 H254.55 V21.21 H243.94 Z M275.76,21.21 V31.82 H286.36 V21.21 H275.76 Z M296.97,21.21 V31.82 H307.58 V21.21 H296.97 Z M307.58,21.21 V31.82 H318.18 V21.21 H307.58 Z M318.18,21.21 V31.82 H328.79 V21.21 H318.18 Z M339.39,21.21 V31.82 H350 V21.21 H339.39 Z M0,31.82 V42.42 H10.61 V31.82 H0 Z M21.21,31.82 V42.42 H31.82 V31.82 H21.21 Z M31.82,31.82 V42.42 H42.42 V31.82 H31.82 Z M42.42,31.82 V42.42 H53.03 V31.82 H42.42 Z M63.64,31.82 V42.42 H74.24 V31.82 H63.64 Z M95.45,31.82 V42.42 H106.06 V31.82 H95.45 Z M137.88,31.82 V42.42 H148.48 V31.82 H137.88 Z M159.09,31.82 V42.42 H169.70 V31.82 H159.09 Z M180.30,31.82 V42.42 H190.91 V31.82 H180.30 Z M190.91,31.82 V42.42 H201.52 V31.82 H190.91 Z M212.12,31.82 V42.42 H222.73 V31.82 H212.12 Z M222.73,31.82 V42.42 H233.33 V31.82 H222.73 Z M233.33,31.82 V42.42 H243.94 V31.82 H233.33 Z M275.76,31.82 V42.42 H286.36 V31.82 H275.76 Z M296.97,31.82 V42.42 H307.58 V31.82 H296.97 Z M307.58,31.82 V42.42 H318.18 V31.82 H307.58 Z M318.18,31.82 V42.42 H328.79 V31.82 H318.18 Z M339.39,31.82 V42.42 H350 V31.82 H339.39 Z M0,42.42 V53.03 H10.61 V42.42 H0 Z M21.21,42.42 V53.03 H31.82 V42.42 H21.21 Z M31.82,42.42 V53.03 H42.42 V42.42 H31.82 Z M42.42,42.42 V53.03 H53.03 V42.42 H42.42 Z M63.64,42.42 V53.03 H74.24 V42.42 H63.64 Z M95.45,42.42 V53.03 H106.06 V42.42 H95.45 Z M116.67,42.42 V53.03 H127.27 V42.42 H116.67 Z M137.88,42.42 V53.03 H148.48 V42.42 H137.88 Z M148.48,42.42 V53.03 H159.09 V42.42 H148.48 Z M159.09,42.42 V53.03 H169.70 V42.42 H159.09 Z M169.70,42.42 V53.03 H180.30 V42.42 H169.70 Z M201.52,42.42 V53.03 H212.12 V42.42 H201.52 Z M212.12,42.42 V53.03 H222.73 V42.42 H212.12 Z M243.94,42.42 V53.03 H254.55 V42.42 H243.94 Z M254.55,42.42 V53.03 H265.15 V42.42 H254.55 Z M275.76,42.42 V53.03 H286.36 V42.42 H275.76 Z M296.97,42.42 V53.03 H307.58 V42.42 H296.97 Z M307.58,42.42 V53.03 H318.18 V42.42 H307.58 Z M318.18,42.42 V53.03 H328.79 V42.42 H318.18 Z M339.39,42.42 V53.03 H350 V42.42 H339.39 Z M0,53.03 V63.64 H10.61 V53.03 H0 Z M63.64,53.03 V63.64 H74.24 V53.03 H63.64 Z M95.45,53.03 V63.64 H106.06 V53.03 H95.45 Z M137.88,53.03 V63.64 H148.48 V53.03 H137.88 Z M148.48,53.03 V63.64 H159.09 V53.03 H148.48 Z M169.70,53.03 V63.64 H180.30 V53.03 H169.70 Z M180.30,53.03 V63.64 H190.91 V53.03 H180.30 Z M190.91,53.03 V63.64 H201.52 V53.03 H190.91 Z M201.52,53.03 V63.64 H212.12 V53.03 H201.52 Z M222.73,53.03 V63.64 H233.33 V53.03 H222.73 Z M243.94,53.03 V63.64 H254.55 V53.03 H243.94 Z M254.55,53.03 V63.64 H265.15 V53.03 H254.55 Z M275.76,53.03 V63.64 H286.36 V53.03 H275.76 Z M339.39,53.03 V63.64 H350 V53.03 H339.39 Z M0,63.64 V74.24 H10.61 V63.64 H0 Z M10.61,63.64 V74.24 H21.21 V63.64 H10.61 Z M21.21,63.64 V74.24 H31.82 V63.64 H21.21 Z M31.82,63.64 V74.24 H42.42 V63.64 H31.82 Z M42.42,63.64 V74.24 H53.03 V63.64 H42.42 Z M53.03,63.64 V74.24 H63.64 V63.64 H53.03 Z M63.64,63.64 V74.24 H74.24 V63.64 H63.64 Z M84.85,63.64 V74.24 H95.45 V63.64 H84.85 Z M106.06,63.64 V74.24 H116.67 V63.64 H106.06 Z M127.27,63.64 V74.24 H137.88 V63.64 H127.27 Z M148.48,63.64 V74.24 H159.09 V63.64 H148.48 Z M169.70,63.64 V74.24 H180.30 V63.64 H169.70 Z M190.91,63.64 V74.24 H201.52 V63.64 H190.91 Z M212.12,63.64 V74.24 H222.73 V63.64 H212.12 Z M233.33,63.64 V74.24 H243.94 V63.64 H233.33 Z M254.55,63.64 V74.24 H265.15 V63.64 H254.55 Z M275.76,63.64 V74.24 H286.36 V63.64 H275.76 Z M286.36,63.64 V74.24 H296.97 V63.64 H286.36 Z M296.97,63.64 V74.24 H307.58 V63.64 H296.97 Z M307.58,63.64 V74.24 H318.18 V63.64 H307.58 Z M318.18,63.64 V74.24 H328.79 V63.64 H318.18 Z M328.79,63.64 V74.24 H339.39 V63.64 H328.79 Z M339.39,63.64 V74.24 H350 V63.64 H339.39 Z M95.45,74.24 V84.85 H106.06 V74.24 H95.45 Z M137.88,74.24 V84.85 H148.48 V74.24 H137.88 Z M148.48,74.24 V84.85 H159.09 V74.24 H148.48 Z M159.09,74.24 V84.85 H169.70 V74.24 H159.09 Z M169.70,74.24 V84.85 H180.30 V74.24 H169.70 Z M190.91,74.24 V84.85 H201.52 V74.24 H190.91 Z M222.73,74.24 V84.85 H233.33 V74.24 H222.73 Z M233.33,74.24 V84.85 H243.94 V74.24 H233.33 Z M31.82,84.85 V95.45 H42.42 V84.85 H31.82 Z M53.03,84.85 V95.45 H63.64 V84.85 H53.03 Z M63.64,84.85 V95.45 H74.24 V84.85 H63.64 Z M74.24,84.85 V95.45 H84.85 V84.85 H74.24 Z M95.45,84.85 V95.45 H106.06 V84.85 H95.45 Z M127.27,84.85 V95.45 H137.88 V84.85 H127.27 Z M169.70,84.85 V95.45 H180.30 V84.85 H169.70 Z M190.91,84.85 V95.45 H201.52 V84.85 H190.91 Z M201.52,84.85 V95.45 H212.12 V84.85 H201.52 Z M212.12,84.85 V95.45 H222.73 V84.85 H212.12 Z M222.73,84.85 V95.45 H233.33 V84.85 H222.73 Z M233.33,84.85 V95.45 H243.94 V84.85 H233.33 Z M265.15,84.85 V95.45 H275.76 V84.85 H265.15 Z M318.18,84.85 V95.45 H328.79 V84.85 H318.18 Z M328.79,84.85 V95.45 H339.39 V84.85 H328.79 Z M0,95.45 V106.06 H10.61 V95.45 H0 Z M10.61,95.45 V106.06 H21.21 V95.45 H10.61 Z M31.82,95.45 V106.06 H42.42 V95.45 H31.82 Z M42.42,95.45 V106.06 H53.03 V95.45 H42.42 Z M84.85,95.45 V106.06 H95.45 V95.45 H84.85 Z M95.45,95.45 V106.06 H106.06 V95.45 H95.45 Z M116.67,95.45 V106.06 H127.27 V95.45 H116.67 Z M127.27,95.45 V106.06 H137.88 V95.45 H127.27 Z M137.88,95.45 V106.06 H148.48 V95.45 H137.88 Z M212.12,95.45 V106.06 H222.73 V95.45 H212.12 Z M222.73,95.45 V106.06 H233.33 V95.45 H222.73 Z M254.55,95.45 V106.06 H265.15 V95.45 H254.55 Z M275.76,95.45 V106.06 H286.36 V95.45 H275.76 Z M328.79,95.45 V106.06 H339.39 V95.45 H328.79 Z M339.39,95.45 V106.06 H350 V95.45 H339.39 Z M0,106.06 V116.67 H10.61 V106.06 H0 Z M10.61,106.06 V116.67 H21.21 V106.06 H10.61 Z M31.82,106.06 V116.67 H42.42 V106.06 H31.82 Z M42.42,106.06 V116.67 H53.03 V106.06 H42.42 Z M63.64,106.06 V116.67 H74.24 V106.06 H63.64 Z M95.45,106.06 V116.67 H106.06 V106.06 H95.45 Z M116.67,106.06 V116.67 H127.27 V106.06 H116.67 Z M127.27,106.06 V116.67 H137.88 V106.06 H127.27 Z M137.88,106.06 V116.67 H148.48 V106.06 H137.88 Z M148.48,106.06 V116.67 H159.09 V106.06 H148.48 Z M159.09,106.06 V116.67 H169.70 V106.06 H159.09 Z M180.30,106.06 V116.67 H190.91 V106.06 H180.30 Z M201.52,106.06 V116.67 H212.12 V106.06 H201.52 Z M212.12,106.06 V116.67 H222.73 V106.06 H212.12 Z M254.55,106.06 V116.67 H265.15 V106.06 H254.55 Z M265.15,106.06 V116.67 H275.76 V106.06 H265.15 Z M339.39,106.06 V116.67 H350 V106.06 H339.39 Z M0,116.67 V127.27 H10.61 V116.67 H0 Z M10.61,116.67 V127.27 H21.21 V116.67 H10.61 Z M21.21,116.67 V127.27 H31.82 V116.67 H21.21 Z M31.82,116.67 V127.27 H42.42 V116.67 H31.82 Z M95.45,116.67 V127.27 H106.06 V116.67 H95.45 Z M127.27,116.67 V127.27 H137.88 V116.67 H127.27 Z M137.88,116.67 V127.27 H148.48 V116.67 H137.88 Z M148.48,116.67 V127.27 H159.09 V116.67 H148.48 Z M159.09,116.67 V127.27 H169.70 V116.67 H159.09 Z M169.70,116.67 V127.27 H180.30 V116.67 H169.70 Z M201.52,116.67 V127.27 H212.12 V116.67 H201.52 Z M254.55,116.67 V127.27 H265.15 V116.67 H254.55 Z M286.36,116.67 V127.27 H296.97 V116.67 H286.36 Z M296.97,116.67 V127.27 H307.58 V116.67 H296.97 Z M339.39,116.67 V127.27 H350 V116.67 H339.39 Z M21.21,127.27 V137.88 H31.82 V127.27 H21.21 Z M42.42,127.27 V137.88 H53.03 V127.27 H42.42 Z M63.64,127.27 V137.88 H74.24 V127.27 H63.64 Z M74.24,127.27 V137.88 H84.85 V127.27 H74.24 Z M95.45,127.27 V137.88 H106.06 V127.27 H95.45 Z M106.06,127.27 V137.88 H116.67 V127.27 H106.06 Z M116.67,127.27 V137.88 H127.27 V127.27 H116.67 Z M148.48,127.27 V137.88 H159.09 V127.27 H148.48 Z M169.70,127.27 V137.88 H180.30 V127.27 H169.70 Z M180.30,127.27 V137.88 H190.91 V127.27 H180.30 Z M201.52,127.27 V137.88 H212.12 V127.27 H201.52 Z M212.12,127.27 V137.88 H222.73 V127.27 H212.12 Z M222.73,127.27 V137.88 H233.33 V127.27 H222.73 Z M243.94,127.27 V137.88 H254.55 V127.27 H243.94 Z M286.36,127.27 V137.88 H296.97 V127.27 H286.36 Z M307.58,127.27 V137.88 H318.18 V127.27 H307.58 Z M339.39,127.27 V137.88 H350 V127.27 H339.39 Z M31.82,137.88 V148.48 H42.42 V137.88 H31.82 Z M53.03,137.88 V148.48 H63.64 V137.88 H53.03 Z M74.24,137.88 V148.48 H84.85 V137.88 H74.24 Z M95.45,137.88 V148.48 H106.06 V137.88 H95.45 Z M106.06,137.88 V148.48 H116.67 V137.88 H106.06 Z M159.09,137.88 V148.48 H169.70 V137.88 H159.09 Z M180.30,137.88 V148.48 H190.91 V137.88 H180.30 Z M190.91,137.88 V148.48 H201.52 V137.88 H190.91 Z M212.12,137.88 V148.48 H222.73 V137.88 H212.12 Z M254.55,137.88 V148.48 H265.15 V137.88 H254.55 Z M265.15,137.88 V148.48 H275.76 V137.88 H265.15 Z M296.97,137.88 V148.48 H307.58 V137.88 H296.97 Z M318.18,137.88 V148.48 H328.79 V137.88 H318.18 Z M328.79,137.88 V148.48 H339.39 V137.88 H328.79 Z M339.39,137.88 V148.48 H350 V137.88 H339.39 Z M0,148.48 V159.09 H10.61 V148.48 H0 Z M31.82,148.48 V159.09 H42.42 V148.48 H31.82 Z M42.42,148.48 V159.09 H53.03 V148.48 H42.42 Z M53.03,148.48 V159.09 H63.64 V148.48 H53.03 Z M63.64,148.48 V159.09 H74.24 V148.48 H63.64 Z M95.45,148.48 V159.09 H106.06 V148.48 H95.45 Z M148.48,148.48 V159.09 H159.09 V148.48 H148.48 Z M159.09,148.48 V159.09 H169.70 V148.48 H159.09 Z M180.30,148.48 V159.09 H190.91 V148.48 H180.30 Z M190.91,148.48 V159.09 H201.52 V148.48 H190.91 Z M212.12,148.48 V159.09 H222.73 V148.48 H212.12 Z M254.55,148.48 V159.09 H265.15 V148.48 H254.55 Z M275.76,148.48 V159.09 H286.36 V148.48 H275.76 Z M328.79,148.48 V159.09 H339.39 V148.48 H328.79 Z M0,159.09 V169.70 H10.61 V159.09 H0 Z M21.21,159.09 V169.70 H31.82 V159.09 H21.21 Z M31.82,159.09 V169.70 H42.42 V159.09 H31.82 Z M53.03,159.09 V169.70 H63.64 V159.09 H53.03 Z M74.24,159.09 V169.70 H84.85 V159.09 H74.24 Z M127.27,159.09 V169.70 H137.88 V159.09 H127.27 Z M137.88,159.09 V169.70 H148.48 V159.09 H137.88 Z M159.09,159.09 V169.70 H169.70 V159.09 H159.09 Z M190.91,159.09 V169.70 H201.52 V159.09 H190.91 Z M212.12,159.09 V169.70 H222.73 V159.09 H212.12 Z M222.73,159.09 V169.70 H233.33 V159.09 H222.73 Z M233.33,159.09 V169.70 H243.94 V159.09 H233.33 Z M328.79,159.09 V169.70 H339.39 V159.09 H328.79 Z M10.61,169.70 V180.30 H21.21 V169.70 H10.61 Z M42.42,169.70 V180.30 H53.03 V169.70 H42.42 Z M53.03,169.70 V180.30 H63.64 V169.70 H53.03 Z M63.64,169.70 V180.30 H74.24 V169.70 H63.64 Z M74.24,169.70 V180.30 H84.85 V169.70 H74.24 Z M95.45,169.70 V180.30 H106.06 V169.70 H95.45 Z M116.67,169.70 V180.30 H127.27 V169.70 H116.67 Z M127.27,169.70 V180.30 H137.88 V169.70 H127.27 Z M148.48,169.70 V180.30 H159.09 V169.70 H148.48 Z M159.09,169.70 V180.30 H169.70 V169.70 H159.09 Z M169.70,169.70 V180.30 H180.30 V169.70 H169.70 Z M201.52,169.70 V180.30 H212.12 V169.70 H201.52 Z M212.12,169.70 V180.30 H222.73 V169.70 H212.12 Z M222.73,169.70 V180.30 H233.33 V169.70 H222.73 Z M233.33,169.70 V180.30 H243.94 V169.70 H233.33 Z M243.94,169.70 V180.30 H254.55 V169.70 H243.94 Z M286.36,169.70 V180.30 H296.97 V169.70 H286.36 Z M296.97,169.70 V180.30 H307.58 V169.70 H296.97 Z M307.58,169.70 V180.30 H318.18 V169.70 H307.58 Z M318.18,169.70 V180.30 H328.79 V169.70 H318.18 Z M339.39,169.70 V180.30 H350 V169.70 H339.39 Z M0,180.30 V190.91 H10.61 V180.30 H0 Z M21.21,180.30 V190.91 H31.82 V180.30 H21.21 Z M95.45,180.30 V190.91 H106.06 V180.30 H95.45 Z M116.67,180.30 V190.91 H127.27 V180.30 H116.67 Z M127.27,180.30 V190.91 H137.88 V180.30 H127.27 Z M137.88,180.30 V190.91 H148.48 V180.30 H137.88 Z M159.09,180.30 V190.91 H169.70 V180.30 H159.09 Z M180.30,180.30 V190.91 H190.91 V180.30 H180.30 Z M201.52,180.30 V190.91 H212.12 V180.30 H201.52 Z M212.12,180.30 V190.91 H222.73 V180.30 H212.12 Z M222.73,180.30 V190.91 H233.33 V180.30 H222.73 Z M233.33,180.30 V190.91 H243.94 V180.30 H233.33 Z M243.94,180.30 V190.91 H254.55 V180.30 H243.94 Z M254.55,180.30 V190.91 H265.15 V180.30 H254.55 Z M265.15,180.30 V190.91 H275.76 V180.30 H265.15 Z M275.76,180.30 V190.91 H286.36 V180.30 H275.76 Z M307.58,180.30 V190.91 H318.18 V180.30 H307.58 Z M0,190.91 V201.52 H10.61 V190.91 H0 Z M63.64,190.91 V201.52 H74.24 V190.91 H63.64 Z M74.24,190.91 V201.52 H84.85 V190.91 H74.24 Z M169.70,190.91 V201.52 H180.30 V190.91 H169.70 Z M201.52,190.91 V201.52 H212.12 V190.91 H201.52 Z M233.33,190.91 V201.52 H243.94 V190.91 H233.33 Z M265.15,190.91 V201.52 H275.76 V190.91 H265.15 Z M296.97,190.91 V201.52 H307.58 V190.91 H296.97 Z M307.58,190.91 V201.52 H318.18 V190.91 H307.58 Z M339.39,190.91 V201.52 H350 V190.91 H339.39 Z M21.21,201.52 V212.12 H31.82 V201.52 H21.21 Z M31.82,201.52 V212.12 H42.42 V201.52 H31.82 Z M42.42,201.52 V212.12 H53.03 V201.52 H42.42 Z M53.03,201.52 V212.12 H63.64 V201.52 H53.03 Z M74.24,201.52 V212.12 H84.85 V201.52 H74.24 Z M95.45,201.52 V212.12 H106.06 V201.52 H95.45 Z M106.06,201.52 V212.12 H116.67 V201.52 H106.06 Z M127.27,201.52 V212.12 H137.88 V201.52 H127.27 Z M148.48,201.52 V212.12 H159.09 V201.52 H148.48 Z M169.70,201.52 V212.12 H180.30 V201.52 H169.70 Z M190.91,201.52 V212.12 H201.52 V201.52 H190.91 Z M201.52,201.52 V212.12 H212.12 V201.52 H201.52 Z M222.73,201.52 V212.12 H233.33 V201.52 H222.73 Z M233.33,201.52 V212.12 H243.94 V201.52 H233.33 Z M265.15,201.52 V212.12 H275.76 V201.52 H265.15 Z M275.76,201.52 V212.12 H286.36 V201.52 H275.76 Z M307.58,201.52 V212.12 H318.18 V201.52 H307.58 Z M318.18,201.52 V212.12 H328.79 V201.52 H318.18 Z M328.79,201.52 V212.12 H339.39 V201.52 H328.79 Z M10.61,212.12 V222.73 H21.21 V212.12 H10.61 Z M63.64,212.12 V222.73 H74.24 V212.12 H63.64 Z M74.24,212.12 V222.73 H84.85 V212.12 H74.24 Z M84.85,212.12 V222.73 H95.45 V212.12 H84.85 Z M95.45,212.12 V222.73 H106.06 V212.12 H95.45 Z M116.67,212.12 V222.73 H127.27 V212.12 H116.67 Z M127.27,212.12 V222.73 H137.88 V212.12 H127.27 Z M159.09,212.12 V222.73 H169.70 V212.12 H159.09 Z M169.70,212.12 V222.73 H180.30 V212.12 H169.70 Z M180.30,212.12 V222.73 H190.91 V212.12 H180.30 Z M201.52,212.12 V222.73 H212.12 V212.12 H201.52 Z M212.12,212.12 V222.73 H222.73 V212.12 H212.12 Z M222.73,212.12 V222.73 H233.33 V212.12 H222.73 Z M243.94,212.12 V222.73 H254.55 V212.12 H243.94 Z M254.55,212.12 V222.73 H265.15 V212.12 H254.55 Z M286.36,212.12 V222.73 H296.97 V212.12 H286.36 Z M296.97,212.12 V222.73 H307.58 V212.12 H296.97 Z M307.58,212.12 V222.73 H318.18 V212.12 H307.58 Z M328.79,212.12 V222.73 H339.39 V212.12 H328.79 Z M339.39,212.12 V222.73 H350 V212.12 H339.39 Z M0,222.73 V233.33 H10.61 V222.73 H0 Z M21.21,222.73 V233.33 H31.82 V222.73 H21.21 Z M31.82,222.73 V233.33 H42.42 V222.73 H31.82 Z M42.42,222.73 V233.33 H53.03 V222.73 H42.42 Z M53.03,222.73 V233.33 H63.64 V222.73 H53.03 Z M95.45,222.73 V233.33 H106.06 V222.73 H95.45 Z M106.06,222.73 V233.33 H116.67 V222.73 H106.06 Z M137.88,222.73 V233.33 H148.48 V222.73 H137.88 Z M180.30,222.73 V233.33 H190.91 V222.73 H180.30 Z M190.91,222.73 V233.33 H201.52 V222.73 H190.91 Z M307.58,222.73 V233.33 H318.18 V222.73 H307.58 Z M0,233.33 V243.94 H10.61 V233.33 H0 Z M10.61,233.33 V243.94 H21.21 V233.33 H10.61 Z M31.82,233.33 V243.94 H42.42 V233.33 H31.82 Z M42.42,233.33 V243.94 H53.03 V233.33 H42.42 Z M63.64,233.33 V243.94 H74.24 V233.33 H63.64 Z M84.85,233.33 V243.94 H95.45 V233.33 H84.85 Z M127.27,233.33 V243.94 H137.88 V233.33 H127.27 Z M201.52,233.33 V243.94 H212.12 V233.33 H201.52 Z M222.73,233.33 V243.94 H233.33 V233.33 H222.73 Z M233.33,233.33 V243.94 H243.94 V233.33 H233.33 Z M243.94,233.33 V243.94 H254.55 V233.33 H243.94 Z M275.76,233.33 V243.94 H286.36 V233.33 H275.76 Z M328.79,233.33 V243.94 H339.39 V233.33 H328.79 Z M21.21,243.94 V254.55 H31.82 V243.94 H21.21 Z M74.24,243.94 V254.55 H84.85 V243.94 H74.24 Z M84.85,243.94 V254.55 H95.45 V243.94 H84.85 Z M95.45,243.94 V254.55 H106.06 V243.94 H95.45 Z M106.06,243.94 V254.55 H116.67 V243.94 H106.06 Z M137.88,243.94 V254.55 H148.48 V243.94 H137.88 Z M148.48,243.94 V254.55 H159.09 V243.94 H148.48 Z M169.70,243.94 V254.55 H180.30 V243.94 H169.70 Z M180.30,243.94 V254.55 H190.91 V243.94 H180.30 Z M190.91,243.94 V254.55 H201.52 V243.94 H190.91 Z M212.12,243.94 V254.55 H222.73 V243.94 H212.12 Z M222.73,243.94 V254.55 H233.33 V243.94 H222.73 Z M233.33,243.94 V254.55 H243.94 V243.94 H233.33 Z M243.94,243.94 V254.55 H254.55 V243.94 H243.94 Z M254.55,243.94 V254.55 H265.15 V243.94 H254.55 Z M265.15,243.94 V254.55 H275.76 V243.94 H265.15 Z M286.36,243.94 V254.55 H296.97 V243.94 H286.36 Z M296.97,243.94 V254.55 H307.58 V243.94 H296.97 Z M307.58,243.94 V254.55 H318.18 V243.94 H307.58 Z M318.18,243.94 V254.55 H328.79 V243.94 H318.18 Z M328.79,243.94 V254.55 H339.39 V243.94 H328.79 Z M10.61,254.55 V265.15 H21.21 V254.55 H10.61 Z M63.64,254.55 V265.15 H74.24 V254.55 H63.64 Z M74.24,254.55 V265.15 H84.85 V254.55 H74.24 Z M95.45,254.55 V265.15 H106.06 V254.55 H95.45 Z M106.06,254.55 V265.15 H116.67 V254.55 H106.06 Z M137.88,254.55 V265.15 H148.48 V254.55 H137.88 Z M169.70,254.55 V265.15 H180.30 V254.55 H169.70 Z M180.30,254.55 V265.15 H190.91 V254.55 H180.30 Z M190.91,254.55 V265.15 H201.52 V254.55 H190.91 Z M201.52,254.55 V265.15 H212.12 V254.55 H201.52 Z M212.12,254.55 V265.15 H222.73 V254.55 H212.12 Z M222.73,254.55 V265.15 H233.33 V254.55 H222.73 Z M233.33,254.55 V265.15 H243.94 V254.55 H233.33 Z M254.55,254.55 V265.15 H265.15 V254.55 H254.55 Z M265.15,254.55 V265.15 H275.76 V254.55 H265.15 Z M275.76,254.55 V265.15 H286.36 V254.55 H275.76 Z M286.36,254.55 V265.15 H296.97 V254.55 H286.36 Z M296.97,254.55 V265.15 H307.58 V254.55 H296.97 Z M328.79,254.55 V265.15 H339.39 V254.55 H328.79 Z M339.39,254.55 V265.15 H350 V254.55 H339.39 Z M116.67,265.15 V275.76 H127.27 V265.15 H116.67 Z M159.09,265.15 V275.76 H169.70 V265.15 H159.09 Z M243.94,265.15 V275.76 H254.55 V265.15 H243.94 Z M254.55,265.15 V275.76 H265.15 V265.15 H254.55 Z M296.97,265.15 V275.76 H307.58 V265.15 H296.97 Z M307.58,265.15 V275.76 H318.18 V265.15 H307.58 Z M318.18,265.15 V275.76 H328.79 V265.15 H318.18 Z M0,275.76 V286.36 H10.61 V275.76 H0 Z M10.61,275.76 V286.36 H21.21 V275.76 H10.61 Z M21.21,275.76 V286.36 H31.82 V275.76 H21.21 Z M31.82,275.76 V286.36 H42.42 V275.76 H31.82 Z M42.42,275.76 V286.36 H53.03 V275.76 H42.42 Z M53.03,275.76 V286.36 H63.64 V275.76 H53.03 Z M63.64,275.76 V286.36 H74.24 V275.76 H63.64 Z M84.85,275.76 V286.36 H95.45 V275.76 H84.85 Z M95.45,275.76 V286.36 H106.06 V275.76 H95.45 Z M116.67,275.76 V286.36 H127.27 V275.76 H116.67 Z M127.27,275.76 V286.36 H137.88 V275.76 H127.27 Z M137.88,275.76 V286.36 H148.48 V275.76 H137.88 Z M159.09,275.76 V286.36 H169.70 V275.76 H159.09 Z M169.70,275.76 V286.36 H180.30 V275.76 H169.70 Z M180.30,275.76 V286.36 H190.91 V275.76 H180.30 Z M212.12,275.76 V286.36 H222.73 V275.76 H212.12 Z M222.73,275.76 V286.36 H233.33 V275.76 H222.73 Z M233.33,275.76 V286.36 H243.94 V275.76 H233.33 Z M243.94,275.76 V286.36 H254.55 V275.76 H243.94 Z M254.55,275.76 V286.36 H265.15 V275.76 H254.55 Z M275.76,275.76 V286.36 H286.36 V275.76 H275.76 Z M296.97,275.76 V286.36 H307.58 V275.76 H296.97 Z M339.39,275.76 V286.36 H350 V275.76 H339.39 Z M0,286.36 V296.97 H10.61 V286.36 H0 Z M63.64,286.36 V296.97 H74.24 V286.36 H63.64 Z M84.85,286.36 V296.97 H95.45 V286.36 H84.85 Z M116.67,286.36 V296.97 H127.27 V286.36 H116.67 Z M127.27,286.36 V296.97 H137.88 V286.36 H127.27 Z M148.48,286.36 V296.97 H159.09 V286.36 H148.48 Z M169.70,286.36 V296.97 H180.30 V286.36 H169.70 Z M190.91,286.36 V296.97 H201.52 V286.36 H190.91 Z M222.73,286.36 V296.97 H233.33 V286.36 H222.73 Z M233.33,286.36 V296.97 H243.94 V286.36 H233.33 Z M254.55,286.36 V296.97 H265.15 V286.36 H254.55 Z M296.97,286.36 V296.97 H307.58 V286.36 H296.97 Z M307.58,286.36 V296.97 H318.18 V286.36 H307.58 Z M318.18,286.36 V296.97 H328.79 V286.36 H318.18 Z M328.79,286.36 V296.97 H339.39 V286.36 H328.79 Z M339.39,286.36 V296.97 H350 V286.36 H339.39 Z M0,296.97 V307.58 H10.61 V296.97 H0 Z M21.21,296.97 V307.58 H31.82 V296.97 H21.21 Z M31.82,296.97 V307.58 H42.42 V296.97 H31.82 Z M42.42,296.97 V307.58 H53.03 V296.97 H42.42 Z M63.64,296.97 V307.58 H74.24 V296.97 H63.64 Z M116.67,296.97 V307.58 H127.27 V296.97 H116.67 Z M148.48,296.97 V307.58 H159.09 V296.97 H148.48 Z M201.52,296.97 V307.58 H212.12 V296.97 H201.52 Z M233.33,296.97 V307.58 H243.94 V296.97 H233.33 Z M254.55,296.97 V307.58 H265.15 V296.97 H254.55 Z M265.15,296.97 V307.58 H275.76 V296.97 H265.15 Z M275.76,296.97 V307.58 H286.36 V296.97 H275.76 Z M286.36,296.97 V307.58 H296.97 V296.97 H286.36 Z M296.97,296.97 V307.58 H307.58 V296.97 H296.97 Z M307.58,296.97 V307.58 H318.18 V296.97 H307.58 Z M318.18,296.97 V307.58 H328.79 V296.97 H318.18 Z M328.79,296.97 V307.58 H339.39 V296.97 H328.79 Z M339.39,296.97 V307.58 H350 V296.97 H339.39 Z M0,307.58 V318.18 H10.61 V307.58 H0 Z M21.21,307.58 V318.18 H31.82 V307.58 H21.21 Z M31.82,307.58 V318.18 H42.42 V307.58 H31.82 Z M42.42,307.58 V318.18 H53.03 V307.58 H42.42 Z M63.64,307.58 V318.18 H74.24 V307.58 H63.64 Z M84.85,307.58 V318.18 H95.45 V307.58 H84.85 Z M95.45,307.58 V318.18 H106.06 V307.58 H95.45 Z M106.06,307.58 V318.18 H116.67 V307.58 H106.06 Z M116.67,307.58 V318.18 H127.27 V307.58 H116.67 Z M137.88,307.58 V318.18 H148.48 V307.58 H137.88 Z M148.48,307.58 V318.18 H159.09 V307.58 H148.48 Z M159.09,307.58 V318.18 H169.70 V307.58 H159.09 Z M169.70,307.58 V318.18 H180.30 V307.58 H169.70 Z M180.30,307.58 V318.18 H190.91 V307.58 H180.30 Z M190.91,307.58 V318.18 H201.52 V307.58 H190.91 Z M201.52,307.58 V318.18 H212.12 V307.58 H201.52 Z M243.94,307.58 V318.18 H254.55 V307.58 H243.94 Z M254.55,307.58 V318.18 H265.15 V307.58 H254.55 Z M275.76,307.58 V318.18 H286.36 V307.58 H275.76 Z M286.36,307.58 V318.18 H296.97 V307.58 H286.36 Z M307.58,307.58 V318.18 H318.18 V307.58 H307.58 Z M328.79,307.58 V318.18 H339.39 V307.58 H328.79 Z M0,318.18 V328.79 H10.61 V318.18 H0 Z M21.21,318.18 V328.79 H31.82 V318.18 H21.21 Z M31.82,318.18 V328.79 H42.42 V318.18 H31.82 Z M42.42,318.18 V328.79 H53.03 V318.18 H42.42 Z M63.64,318.18 V328.79 H74.24 V318.18 H63.64 Z M106.06,318.18 V328.79 H116.67 V318.18 H106.06 Z M137.88,318.18 V328.79 H148.48 V318.18 H137.88 Z M169.70,318.18 V328.79 H180.30 V318.18 H169.70 Z M190.91,318.18 V328.79 H201.52 V318.18 H190.91 Z M222.73,318.18 V328.79 H233.33 V318.18 H222.73 Z M275.76,318.18 V328.79 H286.36 V318.18 H275.76 Z M307.58,318.18 V328.79 H318.18 V318.18 H307.58 Z M0,328.79 V339.39 H10.61 V328.79 H0 Z M63.64,328.79 V339.39 H74.24 V328.79 H63.64 Z M116.67,328.79 V339.39 H127.27 V328.79 H116.67 Z M137.88,328.79 V339.39 H148.48 V328.79 H137.88 Z M169.70,328.79 V339.39 H180.30 V328.79 H169.70 Z M201.52,328.79 V339.39 H212.12 V328.79 H201.52 Z M212.12,328.79 V339.39 H222.73 V328.79 H212.12 Z M243.94,328.79 V339.39 H254.55 V328.79 H243.94 Z M254.55,328.79 V339.39 H265.15 V328.79 H254.55 Z M318.18,328.79 V339.39 H328.79 V328.79 H318.18 Z M0,339.39 V350 H10.61 V339.39 H0 Z M10.61,339.39 V350 H21.21 V339.39 H10.61 Z M21.21,339.39 V350 H31.82 V339.39 H21.21 Z M31.82,339.39 V350 H42.42 V339.39 H31.82 Z M42.42,339.39 V350 H53.03 V339.39 H42.42 Z M53.03,339.39 V350 H63.64 V339.39 H53.03 Z M63.64,339.39 V350 H74.24 V339.39 H63.64 Z M95.45,339.39 V350 H106.06 V339.39 H95.45 Z M106.06,339.39 V350 H116.67 V339.39 H106.06 Z M127.27,339.39 V350 H137.88 V339.39 H127.27 Z M137.88,339.39 V350 H148.48 V339.39 H137.88 Z M148.48,339.39 V350 H159.09 V339.39 H148.48 Z M180.30,339.39 V350 H190.91 V339.39 H180.30 Z M190.91,339.39 V350 H201.52 V339.39 H190.91 Z M222.73,339.39 V350 H233.33 V339.39 H222.73 Z M233.33,339.39 V350 H243.94 V339.39 H233.33 Z M243.94,339.39 V350 H254.55 V339.39 H243.94 Z M265.15,339.39 V350 H275.76 V339.39 H265.15 Z M275.76,339.39 V350 H286.36 V339.39 H275.76 Z M307.58,339.39 V350 H318.18 V339.39 H307.58 Z M318.18,339.39 V350 H328.79 V339.39 H318.18 Z M339.39,339.39 V350 H350 V339.39 H339.39 Z "></path>
  </svg>
  <circle fill="#fff" stroke-width="6px" stroke="#000" cx="175" cy="175" r="65.75"></circle>
  <svg x="117.25" y="117.25" width="115.5" height="115.5" viewBox="0 0 24 24" fill="#000">
    <path
      d="M12 0c-6.626 0-12 5.373-12 12 0 5.302 3.438 9.8 8.207 11.387.599.111.793-.261.793-.577v-2.234c-3.338.726-4.033-1.416-4.033-1.416-.546-1.387-1.333-1.756-1.333-1.756-1.089-.745.083-.729.083-.729 1.205.084 1.839 1.237 1.839 1.237 1.07 1.834 2.807 1.304 3.492.997.107-.775.418-1.305.762-1.604-2.665-.305-5.467-1.334-5.467-5.931 0-1.311.469-2.381 1.236-3.221-.124-.303-.535-1.524.117-3.176 0 0 1.008-.322 3.301 1.23.957-.266 1.983-.399 3.003-.404 1.02.005 2.047.138 3.006.404 2.291-1.552 3.297-1.23 3.297-1.23.653 1.653.242 2.874.118 3.176.77.84 1.235 1.911 1.235 3.221 0 4.609-2.807 5.624-5.479 5.921.43.372.823 1.102.823 2.222v3.293c0 .319.192.694.801.576 4.765-1.589 8.199-6.086 8.199-11.386 0-6.627-5.373-12-12-12z"></path>
  </svg>
</svg>